<svg xmlns="http://www.w3.org/2000/svg" xmlns:xlink="http://www.w3.org/1999/xlink" width="5555" zoomAndPan="magnify" viewBox="0 0 4166.25 1124.99995" height="1500" preserveAspectRatio="xMidYMid meet" version="1.0"><defs><clipPath id="73eae717e5"><path d="M 0 0.101562 L 4165.5 0.101562 L 4165.5 1124.898438 L 0 1124.898438 Z M 0 0.101562 " clip-rule="nonzero"/></clipPath><linearGradient x1="0" gradientTransform="matrix(0.749865, 0, 0, 0.749865, 0, 0.101197)" y1="0.0000266667" x2="0" gradientUnits="userSpaceOnUse" y2="1499.999937" id="f61ce2e037"><stop stop-opacity="1" stop-color="rgb(22.698975%, 35.699463%, 70.599365%)" offset="0"/><stop stop-opacity="1" stop-color="rgb(22.431946%, 35.279846%, 69.770813%)" offset="0.00390625"/><stop stop-opacity="1" stop-color="rgb(22.166443%, 34.861755%, 68.943787%)" offset="0.0078125"/><stop stop-opacity="1" stop-color="rgb(21.90094%, 34.443665%, 68.11676%)" offset="0.0117188"/><stop stop-opacity="1" stop-color="rgb(21.635437%, 34.025574%, 67.289734%)" offset="0.015625"/><stop stop-opacity="1" stop-color="rgb(21.368408%, 33.607483%, 66.462708%)" offset="0.0195313"/><stop stop-opacity="1" stop-color="rgb(21.102905%, 33.189392%, 65.635681%)" offset="0.0234375"/><stop stop-opacity="1" stop-color="rgb(20.835876%, 32.769775%, 64.807129%)" offset="0.0273438"/><stop stop-opacity="1" stop-color="rgb(20.570374%, 32.351685%, 63.980103%)" offset="0.03125"/><stop stop-opacity="1" stop-color="rgb(20.304871%, 31.933594%, 63.153076%)" offset="0.0351562"/><stop stop-opacity="1" stop-color="rgb(20.039368%, 31.515503%, 62.32605%)" offset="0.0390625"/><stop stop-opacity="1" stop-color="rgb(19.772339%, 31.097412%, 61.497498%)" offset="0.0429687"/><stop stop-opacity="1" stop-color="rgb(19.506836%, 30.679321%, 60.670471%)" offset="0.046875"/><stop stop-opacity="1" stop-color="rgb(19.239807%, 30.259705%, 59.843445%)" offset="0.0507812"/><stop stop-opacity="1" stop-color="rgb(18.974304%, 29.841614%, 59.016418%)" offset="0.0546875"/><stop stop-opacity="1" stop-color="rgb(18.708801%, 29.423523%, 58.189392%)" offset="0.0585937"/><stop stop-opacity="1" stop-color="rgb(18.443298%, 29.005432%, 57.362366%)" offset="0.0625"/><stop stop-opacity="1" stop-color="rgb(18.17627%, 28.587341%, 56.533813%)" offset="0.0664062"/><stop stop-opacity="1" stop-color="rgb(17.910767%, 28.16925%, 55.706787%)" offset="0.0703125"/><stop stop-opacity="1" stop-color="rgb(17.643738%, 27.749634%, 54.879761%)" offset="0.0742187"/><stop stop-opacity="1" stop-color="rgb(17.378235%, 27.331543%, 54.052734%)" offset="0.078125"/><stop stop-opacity="1" stop-color="rgb(17.112732%, 26.913452%, 53.224182%)" offset="0.0820312"/><stop stop-opacity="1" stop-color="rgb(16.847229%, 26.495361%, 52.397156%)" offset="0.0859375"/><stop stop-opacity="1" stop-color="rgb(16.5802%, 26.077271%, 51.570129%)" offset="0.0898438"/><stop stop-opacity="1" stop-color="rgb(16.314697%, 25.65918%, 50.743103%)" offset="0.09375"/><stop stop-opacity="1" stop-color="rgb(16.047668%, 25.239563%, 49.916077%)" offset="0.0976562"/><stop stop-opacity="1" stop-color="rgb(15.782166%, 24.821472%, 49.08905%)" offset="0.101562"/><stop stop-opacity="1" stop-color="rgb(15.516663%, 24.403381%, 48.260498%)" offset="0.105469"/><stop stop-opacity="1" stop-color="rgb(15.25116%, 23.985291%, 47.433472%)" offset="0.109375"/><stop stop-opacity="1" stop-color="rgb(14.984131%, 23.5672%, 46.606445%)" offset="0.113281"/><stop stop-opacity="1" stop-color="rgb(14.718628%, 23.149109%, 45.779419%)" offset="0.117188"/><stop stop-opacity="1" stop-color="rgb(14.451599%, 22.729492%, 44.950867%)" offset="0.121094"/><stop stop-opacity="1" stop-color="rgb(14.186096%, 22.311401%, 44.12384%)" offset="0.125"/><stop stop-opacity="1" stop-color="rgb(13.920593%, 21.893311%, 43.296814%)" offset="0.128906"/><stop stop-opacity="1" stop-color="rgb(13.65509%, 21.47522%, 42.469788%)" offset="0.132812"/><stop stop-opacity="1" stop-color="rgb(13.388062%, 21.057129%, 41.641235%)" offset="0.136719"/><stop stop-opacity="1" stop-color="rgb(13.122559%, 20.639038%, 40.814209%)" offset="0.140625"/><stop stop-opacity="1" stop-color="rgb(12.85553%, 20.219421%, 39.987183%)" offset="0.144531"/><stop stop-opacity="1" stop-color="rgb(12.590027%, 19.801331%, 39.160156%)" offset="0.148438"/><stop stop-opacity="1" stop-color="rgb(12.324524%, 19.38324%, 38.33313%)" offset="0.152344"/><stop stop-opacity="1" stop-color="rgb(12.059021%, 18.965149%, 37.506104%)" offset="0.15625"/><stop stop-opacity="1" stop-color="rgb(11.791992%, 18.545532%, 36.677551%)" offset="0.160156"/><stop stop-opacity="1" stop-color="rgb(11.526489%, 18.127441%, 35.850525%)" offset="0.164062"/><stop stop-opacity="1" stop-color="rgb(11.25946%, 17.709351%, 35.023499%)" offset="0.167969"/><stop stop-opacity="1" stop-color="rgb(10.993958%, 17.29126%, 34.196472%)" offset="0.171875"/><stop stop-opacity="1" stop-color="rgb(10.728455%, 16.873169%, 33.36792%)" offset="0.175781"/><stop stop-opacity="1" stop-color="rgb(10.462952%, 16.455078%, 32.540894%)" offset="0.179688"/><stop stop-opacity="1" stop-color="rgb(10.195923%, 16.035461%, 31.713867%)" offset="0.183594"/><stop stop-opacity="1" stop-color="rgb(9.93042%, 15.617371%, 30.886841%)" offset="0.1875"/><stop stop-opacity="1" stop-color="rgb(9.663391%, 15.19928%, 30.059814%)" offset="0.191406"/><stop stop-opacity="1" stop-color="rgb(9.397888%, 14.781189%, 29.232788%)" offset="0.195313"/><stop stop-opacity="1" stop-color="rgb(9.132385%, 14.363098%, 28.404236%)" offset="0.199219"/><stop stop-opacity="1" stop-color="rgb(8.866882%, 13.945007%, 27.577209%)" offset="0.203125"/><stop stop-opacity="1" stop-color="rgb(8.599854%, 13.525391%, 26.750183%)" offset="0.207031"/><stop stop-opacity="1" stop-color="rgb(8.334351%, 13.1073%, 25.923157%)" offset="0.210938"/><stop stop-opacity="1" stop-color="rgb(8.067322%, 12.689209%, 25.094604%)" offset="0.214844"/><stop stop-opacity="1" stop-color="rgb(7.801819%, 12.271118%, 24.267578%)" offset="0.21875"/><stop stop-opacity="1" stop-color="rgb(7.536316%, 11.853027%, 23.440552%)" offset="0.222656"/><stop stop-opacity="1" stop-color="rgb(7.270813%, 11.434937%, 22.613525%)" offset="0.226562"/><stop stop-opacity="1" stop-color="rgb(7.003784%, 11.01532%, 21.784973%)" offset="0.230469"/><stop stop-opacity="1" stop-color="rgb(6.738281%, 10.597229%, 20.957947%)" offset="0.234375"/><stop stop-opacity="1" stop-color="rgb(6.471252%, 10.179138%, 20.13092%)" offset="0.238281"/><stop stop-opacity="1" stop-color="rgb(6.20575%, 9.761047%, 19.303894%)" offset="0.242188"/><stop stop-opacity="1" stop-color="rgb(5.940247%, 9.342957%, 18.476868%)" offset="0.246094"/><stop stop-opacity="1" stop-color="rgb(5.674744%, 8.924866%, 17.649841%)" offset="0.25"/><stop stop-opacity="1" stop-color="rgb(5.407715%, 8.505249%, 16.821289%)" offset="0.253906"/><stop stop-opacity="1" stop-color="rgb(5.142212%, 8.087158%, 15.994263%)" offset="0.257812"/><stop stop-opacity="1" stop-color="rgb(4.875183%, 7.669067%, 15.167236%)" offset="0.261719"/><stop stop-opacity="1" stop-color="rgb(4.60968%, 7.250977%, 14.34021%)" offset="0.265625"/><stop stop-opacity="1" stop-color="rgb(4.344177%, 6.832886%, 13.511658%)" offset="0.269531"/><stop stop-opacity="1" stop-color="rgb(4.078674%, 6.414795%, 12.684631%)" offset="0.273438"/><stop stop-opacity="1" stop-color="rgb(3.811646%, 5.995178%, 11.857605%)" offset="0.277344"/><stop stop-opacity="1" stop-color="rgb(3.546143%, 5.577087%, 11.030579%)" offset="0.28125"/><stop stop-opacity="1" stop-color="rgb(3.279114%, 5.158997%, 10.203552%)" offset="0.285156"/><stop stop-opacity="1" stop-color="rgb(3.013611%, 4.740906%, 9.376526%)" offset="0.289062"/><stop stop-opacity="1" stop-color="rgb(2.748108%, 4.321289%, 8.547974%)" offset="0.292969"/><stop stop-opacity="1" stop-color="rgb(2.482605%, 3.903198%, 7.720947%)" offset="0.296875"/><stop stop-opacity="1" stop-color="rgb(2.215576%, 3.485107%, 6.893921%)" offset="0.300781"/><stop stop-opacity="1" stop-color="rgb(1.950073%, 3.067017%, 6.066895%)" offset="0.304687"/><stop stop-opacity="1" stop-color="rgb(1.683044%, 2.648926%, 5.238342%)" offset="0.308594"/><stop stop-opacity="1" stop-color="rgb(1.417542%, 2.230835%, 4.411316%)" offset="0.3125"/><stop stop-opacity="1" stop-color="rgb(1.152039%, 1.811218%, 3.58429%)" offset="0.316406"/><stop stop-opacity="1" stop-color="rgb(0.886536%, 1.393127%, 2.757263%)" offset="0.320312"/><stop stop-opacity="1" stop-color="rgb(0.619507%, 0.975037%, 1.928711%)" offset="0.324219"/><stop stop-opacity="1" stop-color="rgb(0.354004%, 0.556946%, 1.101685%)" offset="0.328125"/><stop stop-opacity="1" stop-color="rgb(0.177002%, 0.27771%, 0.550842%)" offset="0.332031"/><stop stop-opacity="1" stop-color="rgb(0%, 0%, 0%)" offset="0.335937"/><stop stop-opacity="1" stop-color="rgb(0%, 0%, 0%)" offset="0.34375"/><stop stop-opacity="1" stop-color="rgb(0%, 0%, 0%)" offset="0.375"/><stop stop-opacity="1" stop-color="rgb(0%, 0%, 0%)" offset="0.5"/><stop stop-opacity="1" stop-color="rgb(0%, 0%, 0%)" offset="1"/></linearGradient><clipPath id="1cf17cbeff"><path d="M 2700 417 L 2863 417 L 2863 581 L 2700 581 Z M 2700 417 " clip-rule="nonzero"/></clipPath><clipPath id="8c9fa59a81"><path d="M 2695.671875 578.824219 L 2709.429688 411.421875 L 2867.867188 424.441406 L 2854.109375 591.847656 Z M 2695.671875 578.824219 " clip-rule="nonzero"/></clipPath><clipPath id="834cd4fe0d"><path d="M 2695.671875 578.824219 L 2709.429688 411.421875 L 2867.867188 424.441406 L 2854.109375 591.847656 Z M 2695.671875 578.824219 " clip-rule="nonzero"/></clipPath><clipPath id="d625f9cfeb"><path d="M 2774 936 L 2875 936 L 2875 1049 L 2774 1049 Z M 2774 936 " clip-rule="nonzero"/></clipPath><clipPath id="9942993843"><path d="M 2804.375 919.175781 L 2894.757812 975.476562 L 2841.628906 1060.765625 L 2751.25 1004.464844 Z M 2804.375 919.175781 " clip-rule="nonzero"/></clipPath><clipPath id="4a3be03635"><path d="M 2804.375 919.175781 L 2894.757812 975.476562 L 2841.628906 1060.765625 L 2751.25 1004.464844 Z M 2804.375 919.175781 " clip-rule="nonzero"/></clipPath><clipPath id="c5134b12bb"><path d="M 3269 754 L 3504 754 L 3504 965 L 3269 965 Z M 3269 754 " clip-rule="nonzero"/></clipPath><clipPath id="e8a72028a0"><path d="M 3542.015625 822.257812 L 3419.066406 1009.75 L 3241.605469 893.378906 L 3364.554688 705.886719 Z M 3542.015625 822.257812 " clip-rule="nonzero"/></clipPath><clipPath id="971515b44a"><path d="M 3542.015625 822.257812 L 3419.066406 1009.75 L 3241.605469 893.378906 L 3364.554688 705.886719 Z M 3542.015625 822.257812 " clip-rule="nonzero"/></clipPath><clipPath id="e219a9af6b"><path d="M 1174 48 L 1423 48 L 1423 278 L 1174 278 Z M 1174 48 " clip-rule="nonzero"/></clipPath><clipPath id="5edb2d8993"><path d="M 1364.503906 10.382812 L 1448.117188 240.097656 L 1231.085938 319.09375 L 1147.472656 89.382812 Z M 1364.503906 10.382812 " clip-rule="nonzero"/></clipPath><clipPath id="cfe0766e55"><path d="M 1364.503906 10.382812 L 1448.117188 240.097656 L 1231.085938 319.09375 L 1147.472656 89.382812 Z M 1364.503906 10.382812 " clip-rule="nonzero"/></clipPath><clipPath id="bfec61059c"><path d="M 598 56 L 774 56 L 774 213 L 598 213 Z M 598 56 " clip-rule="nonzero"/></clipPath><clipPath id="a3b3122f1c"><path d="M 798.714844 94.738281 L 718.996094 242.585938 L 579.070312 167.136719 L 658.792969 19.289062 Z M 798.714844 94.738281 " clip-rule="nonzero"/></clipPath><clipPath id="20fb3fa8ba"><path d="M 798.714844 94.738281 L 718.996094 242.585938 L 579.070312 167.136719 L 658.792969 19.289062 Z M 798.714844 94.738281 " clip-rule="nonzero"/></clipPath><clipPath id="3a50a0d2b9"><path d="M 165 695 L 322 695 L 322 870 L 165 870 Z M 165 695 " clip-rule="nonzero"/></clipPath><clipPath id="d4ceeb3a8c"><path d="M 192.199219 674.136719 L 346.671875 740.105469 L 284.234375 886.304688 L 129.761719 820.335938 Z M 192.199219 674.136719 " clip-rule="nonzero"/></clipPath><clipPath id="6062f51f1b"><path d="M 192.199219 674.136719 L 346.671875 740.105469 L 284.234375 886.304688 L 129.761719 820.335938 Z M 192.199219 674.136719 " clip-rule="nonzero"/></clipPath><clipPath id="52829c4ca8"><path d="M 2139 424 L 2237 424 L 2237 512 L 2139 512 Z M 2139 424 " clip-rule="nonzero"/></clipPath><clipPath id="74d984766f"><path d="M 2250.828125 446 L 2206.339844 528.503906 L 2128.457031 486.507812 L 2172.945312 404.003906 Z M 2250.828125 446 " clip-rule="nonzero"/></clipPath><clipPath id="b788874638"><path d="M 2250.828125 446 L 2206.339844 528.503906 L 2128.457031 486.507812 L 2172.945312 404.003906 Z M 2250.828125 446 " clip-rule="nonzero"/></clipPath><clipPath id="adcdba5385"><path d="M 3658 288 L 3821 288 L 3821 452 L 3658 452 Z M 3658 288 " clip-rule="nonzero"/></clipPath><clipPath id="4b6a021b3e"><path d="M 3825.355469 290.164062 L 3811.597656 457.566406 L 3653.160156 444.546875 L 3666.917969 277.140625 Z M 3825.355469 290.164062 " clip-rule="nonzero"/></clipPath><clipPath id="6378002bda"><path d="M 3825.355469 290.164062 L 3811.597656 457.566406 L 3653.160156 444.546875 L 3666.917969 277.140625 Z M 3825.355469 290.164062 " clip-rule="nonzero"/></clipPath><clipPath id="f0ac96c393"><path d="M 1163 768 L 1413 768 L 1413 998 L 1163 998 Z M 1163 768 " clip-rule="nonzero"/></clipPath><clipPath id="483d5eee00"><path d="M 1221.597656 1035.617188 L 1137.984375 805.902344 L 1355.011719 726.90625 L 1438.625 956.621094 Z M 1221.597656 1035.617188 " clip-rule="nonzero"/></clipPath><clipPath id="9c9250ec29"><path d="M 1221.597656 1035.617188 L 1137.984375 805.902344 L 1355.011719 726.90625 L 1438.625 956.621094 Z M 1221.597656 1035.617188 " clip-rule="nonzero"/></clipPath><clipPath id="8a3df58f66"><path d="M 1795 850 L 1966 850 L 1966 1013 L 1795 1013 Z M 1795 850 " clip-rule="nonzero"/></clipPath><clipPath id="9cc9891867"><path d="M 1901.238281 812.886719 L 1992.769531 953.726562 L 1859.472656 1040.351562 L 1767.941406 899.511719 Z M 1901.238281 812.886719 " clip-rule="nonzero"/></clipPath><clipPath id="f7e60629a2"><path d="M 1901.238281 812.886719 L 1992.769531 953.726562 L 1859.472656 1040.351562 L 1767.941406 899.511719 Z M 1901.238281 812.886719 " clip-rule="nonzero"/></clipPath><clipPath id="b4e7f59b34"><path d="M 349 534 L 448 534 L 448 622 L 349 622 Z M 349 534 " clip-rule="nonzero"/></clipPath><clipPath id="e6e1bd6628"><path d="M 335.269531 599.996094 L 379.757812 517.492188 L 457.640625 559.488281 L 413.152344 641.988281 Z M 335.269531 599.996094 " clip-rule="nonzero"/></clipPath><clipPath id="1a304980be"><path d="M 335.269531 599.996094 L 379.757812 517.492188 L 457.640625 559.488281 L 413.152344 641.988281 Z M 335.269531 599.996094 " clip-rule="nonzero"/></clipPath><clipPath id="5854c03e98"><path d="M 575 660 L 684 660 L 684 764 L 575 764 Z M 575 660 " clip-rule="nonzero"/></clipPath><clipPath id="dc0a74d24d"><path d="M 618.421875 788.117188 L 558.191406 700.308594 L 641.058594 643.472656 L 701.285156 731.285156 Z M 618.421875 788.117188 " clip-rule="nonzero"/></clipPath><clipPath id="72119e0308"><path d="M 618.421875 788.117188 L 558.191406 700.308594 L 641.058594 643.472656 L 701.285156 731.285156 Z M 618.421875 788.117188 " clip-rule="nonzero"/></clipPath><clipPath id="5ac349e269"><path d="M 3705 632 L 3885 632 L 3885 821 L 3705 821 Z M 3705 632 " clip-rule="nonzero"/></clipPath><clipPath id="a32779bd29"><path d="M 3664.402344 703.628906 L 3819.542969 602.457031 L 3914.980469 748.804688 L 3759.839844 849.976562 Z M 3664.402344 703.628906 " clip-rule="nonzero"/></clipPath><clipPath id="446ca9087e"><path d="M 3664.402344 703.628906 L 3819.542969 602.457031 L 3914.980469 748.804688 L 3759.839844 849.976562 Z M 3664.402344 703.628906 " clip-rule="nonzero"/></clipPath><clipPath id="d735c059dc"><path d="M 1462 335 L 1609 335 L 1609 486 L 1462 486 Z M 1462 335 " clip-rule="nonzero"/></clipPath><clipPath id="298c72580a"><path d="M 1535.410156 517.566406 L 1432.949219 410.109375 L 1534.433594 313.34375 L 1636.894531 420.796875 Z M 1535.410156 517.566406 " clip-rule="nonzero"/></clipPath><clipPath id="4f9edd9e36"><path d="M 1535.410156 517.566406 L 1432.949219 410.109375 L 1534.433594 313.34375 L 1636.894531 420.796875 Z M 1535.410156 517.566406 " clip-rule="nonzero"/></clipPath><clipPath id="803e1ef5f2"><path d="M 1874 279 L 1963 279 L 1963 378 L 1874 378 Z M 1874 279 " clip-rule="nonzero"/></clipPath><clipPath id="6bad7c25e7"><path d="M 1900.644531 263.816406 L 1980.84375 313.773438 L 1933.664062 389.511719 L 1853.464844 339.558594 Z M 1900.644531 263.816406 " clip-rule="nonzero"/></clipPath><clipPath id="30977417fe"><path d="M 1900.644531 263.816406 L 1980.84375 313.773438 L 1933.664062 389.511719 L 1853.464844 339.558594 Z M 1900.644531 263.816406 " clip-rule="nonzero"/></clipPath><clipPath id="5b8e3798a5"><path d="M 2312 118 L 2520 118 L 2520 305 L 2312 305 Z M 2312 118 " clip-rule="nonzero"/></clipPath><clipPath id="1b3eda5a8e"><path d="M 2553.378906 178.054688 L 2444.410156 344.226562 L 2287.644531 241.429688 L 2396.613281 75.253906 Z M 2553.378906 178.054688 " clip-rule="nonzero"/></clipPath><clipPath id="6ec901a44b"><path d="M 2553.378906 178.054688 L 2444.410156 344.226562 L 2287.644531 241.429688 L 2396.613281 75.253906 Z M 2553.378906 178.054688 " clip-rule="nonzero"/></clipPath><clipPath id="808bc36b3b"><path d="M 2698 10 L 2857 10 L 2857 177 L 2698 177 Z M 2698 10 " clip-rule="nonzero"/></clipPath><clipPath id="32634e7cac"><path d="M 2661.6875 73.078125 L 2798.613281 -16.214844 L 2882.992188 113.175781 L 2746.066406 202.46875 Z M 2661.6875 73.078125 " clip-rule="nonzero"/></clipPath><clipPath id="c874910e55"><path d="M 2661.6875 73.078125 L 2798.613281 -16.214844 L 2882.992188 113.175781 L 2746.066406 202.46875 Z M 2661.6875 73.078125 " clip-rule="nonzero"/></clipPath><clipPath id="b55263dfa4"><path d="M 743 832 L 914 832 L 914 995 L 743 995 Z M 743 832 " clip-rule="nonzero"/></clipPath><clipPath id="c2e814e3a1"><path d="M 807.875 1032.132812 L 716.347656 891.292969 L 849.644531 804.667969 L 941.171875 945.507812 Z M 807.875 1032.132812 " clip-rule="nonzero"/></clipPath><clipPath id="8f5db5b09b"><path d="M 807.875 1032.132812 L 716.347656 891.292969 L 849.644531 804.667969 L 941.171875 945.507812 Z M 807.875 1032.132812 " clip-rule="nonzero"/></clipPath></defs><g clip-path="url(#73eae717e5)"><path fill="#ffffff" d="M 0 0.101562 L 4165.5 0.101562 L 4165.5 1124.898438 L 0 1124.898438 Z M 0 0.101562 " fill-opacity="1" fill-rule="nonzero"/><path fill="url(#f61ce2e037)" d="M 0 0.101562 L 0 1124.898438 L 4165.5 1124.898438 L 4165.5 0.101562 Z M 0 0.101562 " fill-rule="nonzero"/></g><g clip-path="url(#1cf17cbeff)"><g clip-path="url(#8c9fa59a81)"><g clip-path="url(#834cd4fe0d)"><path fill="#727989" d="M 2705.128906 465.65625 C 2705.105469 465.996094 2705.09375 466.347656 2705.089844 466.699219 C 2706.34375 480.761719 2720.378906 489.589844 2733.21875 491.757812 C 2744.820312 494.335938 2760.324219 490.40625 2764.011719 477.742188 C 2764.519531 475.902344 2764.515625 473.945312 2764.171875 472.078125 C 2760.246094 456.140625 2742.445312 447.6875 2727.042969 448.679688 C 2717.160156 448.523438 2705.863281 455.054688 2705.128906 465.65625 Z M 2700.925781 524.492188 C 2700.429688 533.132812 2708.621094 540.566406 2716.726562 542.609375 C 2732.777344 546.828125 2753.621094 541.082031 2760.164062 524.539062 C 2760.640625 522.980469 2760.8125 521.339844 2760.695312 519.714844 C 2759.726562 508.089844 2747.269531 502.175781 2736.851562 501.800781 C 2723.132812 501.019531 2706.71875 506.832031 2701.699219 520.734375 C 2701.246094 522.003906 2700.996094 523.261719 2700.925781 524.492188 Z M 2755.097656 431.941406 C 2754.765625 446.929688 2768.804688 458.378906 2782.582031 460.976562 C 2792.441406 463.777344 2806.289062 459.535156 2808.027344 448.164062 C 2809.140625 432.203125 2792.996094 419.925781 2778.371094 418.265625 C 2768.757812 416.460938 2756.519531 421.207031 2755.097656 431.941406 Z M 2747.671875 562.761719 C 2747.09375 569.101562 2750.382812 575.652344 2756.664062 578.257812 C 2773.460938 585.207031 2796.230469 575.894531 2801.359375 557.917969 C 2803.289062 550.398438 2797.984375 543.214844 2791.089844 540.746094 C 2776.347656 535.496094 2758.167969 542.289062 2750.179688 555.660156 C 2748.722656 557.824219 2747.898438 560.277344 2747.675781 562.761719 Z M 2784.105469 498.4375 C 2783.113281 510.878906 2788.386719 524.035156 2797.121094 532.863281 C 2807.359375 542.460938 2819.519531 550.636719 2833.113281 554.5625 C 2842.78125 558.765625 2854.863281 552.03125 2855.808594 541.398438 C 2857.214844 528.632812 2849.332031 516.914062 2849.726562 504.136719 C 2848.96875 493.207031 2855.375 484 2859.847656 474.597656 C 2864.0625 466.625 2863.648438 455.09375 2855.101562 450.144531 C 2846.308594 446.082031 2836.242188 450.171875 2827.859375 453.554688 C 2814.113281 460.734375 2799.65625 468.449219 2790.386719 481.308594 C 2786.578125 486.457031 2784.59375 492.363281 2784.105469 498.4375 Z M 2784.105469 498.4375 " fill-opacity="1" fill-rule="nonzero"/></g></g></g><g clip-path="url(#d625f9cfeb)"><g clip-path="url(#9942993843)"><g clip-path="url(#4a3be03635)"><path fill="#727989" d="M 2865.550781 957.398438 C 2865.363281 957.285156 2865.167969 957.175781 2864.972656 957.074219 C 2856.664062 953.699219 2847.601562 959.058594 2842.644531 965.679688 C 2837.820312 971.484375 2835.535156 981.382812 2841.617188 987.144531 C 2842.507812 987.96875 2843.613281 988.535156 2844.769531 988.882812 C 2854.914062 991.292969 2864.859375 983.695312 2868.773438 974.707031 C 2871.730469 969.171875 2871.324219 960.894531 2865.550781 957.398438 Z M 2833.539062 937.929688 C 2828.804688 935.140625 2822.226562 937.609375 2818.714844 941.59375 C 2811.671875 949.433594 2808.859375 962.875 2816.300781 971.378906 C 2817.046875 972.097656 2817.921875 972.671875 2818.875 973.078125 C 2825.722656 975.910156 2832.679688 970.589844 2835.917969 964.816406 C 2840.34375 957.292969 2841.832031 946.332031 2835.4375 939.460938 C 2834.851562 938.835938 2834.214844 938.332031 2833.539062 937.933594 Z M 2870.074219 995.417969 C 2861.707031 990.875 2851.160156 995.480469 2845.691406 1002.503906 C 2841.246094 1007.261719 2839.617188 1016.3125 2845.535156 1020.597656 C 2854.226562 1025.867188 2865.851562 1020.3125 2871.035156 1012.535156 C 2874.847656 1007.632812 2875.726562 999.339844 2870.074219 995.417969 Z M 2798.347656 953.214844 C 2794.933594 951.046875 2790.273438 951 2786.980469 953.792969 C 2778.171875 961.261719 2776.820312 976.828125 2785.484375 984.945312 C 2789.167969 988.222656 2794.769531 987.3125 2798.164062 984.136719 C 2805.414062 977.332031 2806.855469 965.089844 2801.625 956.695312 C 2800.828125 955.242188 2799.679688 954.066406 2798.34375 953.21875 Z M 2824.089844 992.484375 C 2817.351562 988.304688 2808.390625 987.464844 2800.867188 989.832031 C 2792.46875 992.824219 2784.320312 997.316406 2778.152344 1003.855469 C 2772.96875 1008.097656 2773.261719 1016.878906 2778.992188 1020.5 C 2785.796875 1025.003906 2794.703125 1023.953125 2801.808594 1027.890625 C 2808.199219 1030.636719 2811.539062 1036.929688 2815.550781 1042.1875 C 2818.828125 1046.886719 2825.460938 1050 2830.738281 1046.609375 C 2835.589844 1042.824219 2836.203125 1035.953125 2836.726562 1030.234375 C 2836.664062 1020.386719 2836.511719 1009.976562 2831.941406 1001.003906 C 2830.136719 997.359375 2827.378906 994.523438 2824.089844 992.484375 Z M 2824.089844 992.484375 " fill-opacity="1" fill-rule="nonzero"/></g></g></g><g clip-path="url(#c5134b12bb)"><g clip-path="url(#e8a72028a0)"><g clip-path="url(#971515b44a)"><path fill="#727989" d="M 3458.582031 949.109375 C 3458.828125 948.722656 3459.070312 948.316406 3459.292969 947.90625 C 3466.808594 930.59375 3455.96875 911.253906 3442.277344 900.503906 C 3430.304688 890.0625 3409.585938 884.769531 3397.160156 897.289062 C 3395.386719 899.121094 3394.140625 901.417969 3393.355469 903.832031 C 3387.777344 925.058594 3403.28125 946.359375 3422 955.039062 C 3433.503906 961.539062 3450.945312 961.089844 3458.582031 949.109375 Z M 3501.121094 882.703125 C 3507.226562 872.875 3502.355469 858.910156 3494.140625 851.332031 C 3477.992188 836.121094 3449.84375 829.546875 3431.585938 844.789062 C 3430.027344 846.316406 3428.78125 848.132812 3427.878906 850.117188 C 3421.585938 864.386719 3432.433594 879.292969 3444.429688 886.390625 C 3460.042969 896.074219 3483.03125 899.742188 3497.808594 886.625 C 3499.152344 885.417969 3500.246094 884.105469 3501.117188 882.703125 Z M 3378.355469 956.765625 C 3388.328125 939.378906 3379.15625 916.960938 3364.640625 905.101562 C 3354.847656 895.515625 3335.882812 891.648438 3326.570312 903.890625 C 3315.0625 921.921875 3326.175781 946.65625 3342.289062 957.949219 C 3352.421875 966.210938 3369.828125 968.464844 3378.355469 956.765625 Z M 3470.683594 807.894531 C 3475.410156 800.816406 3475.738281 791.019531 3470.027344 783.949219 C 3454.742188 765.050781 3422.054688 761.4375 3404.542969 779.269531 C 3397.46875 786.863281 3399.109375 798.691406 3405.625 805.996094 C 3419.585938 821.582031 3445.273438 825.222656 3463.199219 814.625 C 3466.296875 813.015625 3468.828125 810.660156 3470.679688 807.890625 Z M 3386.789062 860.140625 C 3395.910156 846.164062 3398.125 827.347656 3393.507812 811.398438 C 3387.621094 793.582031 3378.566406 776.214844 3365.113281 762.917969 C 3356.441406 751.800781 3337.949219 751.988281 3330.046875 763.867188 C 3320.238281 777.960938 3322.003906 796.761719 3313.375 811.511719 C 3307.28125 824.832031 3293.871094 831.546875 3282.609375 839.730469 C 3272.566406 846.398438 3265.6875 860.203125 3272.558594 871.480469 C 3280.285156 881.871094 3294.722656 883.5 3306.730469 884.882812 C 3327.457031 885.234375 3349.363281 885.417969 3368.46875 876.242188 C 3376.230469 872.628906 3382.335938 866.964844 3386.789062 860.140625 Z M 3386.789062 860.140625 " fill-opacity="1" fill-rule="nonzero"/></g></g></g><g clip-path="url(#e219a9af6b)"><g clip-path="url(#5edb2d8993)"><g clip-path="url(#cfe0766e55)"><path fill="#727989" d="M 1420.886719 165.957031 C 1420.710938 165.488281 1420.511719 165.015625 1420.300781 164.550781 C 1410.078125 146.699219 1386.125 143.558594 1367.808594 148.503906 C 1350.882812 152.152344 1332.75 166.796875 1335.582031 185.8125 C 1336.027344 188.554688 1337.222656 191.140625 1338.816406 193.402344 C 1353.71875 212.113281 1382.429688 212.464844 1402.214844 201.773438 C 1415.390625 195.960938 1426.371094 180.4375 1420.890625 165.957031 Z M 1390.628906 85.507812 C 1386.023438 73.769531 1370.652344 68.914062 1358.675781 71.148438 C 1334.863281 75.335938 1310.769531 95.628906 1312.175781 121.515625 C 1312.496094 123.871094 1313.269531 126.148438 1314.414062 128.230469 C 1322.773438 143.027344 1342.863281 143.273438 1356.882812 137.421875 C 1375.519531 130.101562 1393.714844 112.414062 1391.894531 90.957031 C 1391.71875 89 1391.28125 87.183594 1390.625 85.507812 Z M 1375.265625 241.015625 C 1366.582031 220.96875 1341.023438 214.363281 1321.203125 219.308594 C 1306.445312 221.609375 1290.699219 235.652344 1295.320312 251.765625 C 1303.5625 273.574219 1332.414062 279.996094 1352.78125 273.289062 C 1366.605469 269.824219 1379.921875 256.089844 1375.265625 241.015625 Z M 1305.445312 63.3125 C 1302.347656 54.566406 1294.003906 47.894531 1284.105469 48.269531 C 1257.632812 49.300781 1233.167969 75.492188 1237.324219 102.410156 C 1239.34375 113.542969 1250.742188 119.820312 1261.371094 118.894531 C 1284.082031 116.863281 1304.011719 96.800781 1306.445312 74.242188 C 1307.0625 70.484375 1306.65625 66.734375 1305.441406 63.3125 Z M 1296.375 170.648438 C 1290.117188 153.570312 1275.125 139.367188 1258.1875 133 C 1238.789062 126.527344 1217.714844 123.109375 1197.332031 126.1875 C 1181.96875 126.511719 1170.074219 142.785156 1175.300781 157.429688 C 1181.210938 175.1875 1198.78125 185.902344 1206.039062 203.058594 C 1213.699219 217.066406 1210.820312 233.152344 1210.625 248.324219 C 1209.898438 261.445312 1217.46875 276.453125 1231.796875 277.804688 C 1245.910156 277.832031 1256.746094 266.285156 1265.78125 256.703125 C 1279.605469 238.828125 1294.050781 219.816406 1298.492188 197.144531 C 1300.398438 188.011719 1299.429688 178.988281 1296.375 170.648438 Z M 1296.375 170.648438 " fill-opacity="1" fill-rule="nonzero"/></g></g></g><g clip-path="url(#bfec61059c)"><g clip-path="url(#a3b3122f1c)"><g clip-path="url(#20fb3fa8ba)"><path fill="#727989" d="M 744.679688 194.625 C 744.839844 194.320312 744.992188 194.003906 745.132812 193.683594 C 749.621094 180.296875 740.304688 166.582031 729.410156 159.449219 C 719.820312 152.4375 704.039062 149.820312 695.582031 159.945312 C 694.378906 161.425781 693.597656 163.21875 693.164062 165.066406 C 690.371094 181.246094 703.292969 196.125 717.800781 201.390625 C 726.789062 205.496094 739.757812 204.042969 744.679688 194.625 Z M 772.121094 142.40625 C 776.039062 134.691406 771.515625 124.597656 764.90625 119.476562 C 751.894531 109.175781 730.496094 106.082031 717.867188 118.613281 C 716.804688 119.851562 715.992188 121.285156 715.445312 122.824219 C 711.671875 133.859375 720.714844 144.273438 730.109375 148.792969 C 742.367188 155.007812 759.734375 156.265625 769.90625 145.542969 C 770.828125 144.558594 771.558594 143.507812 772.117188 142.40625 Z M 685.386719 205.476562 C 691.699219 191.878906 683.425781 175.761719 671.847656 167.855469 C 663.9375 161.339844 649.554688 159.675781 643.402344 169.394531 C 635.980469 183.570312 645.847656 201.292969 658.582031 208.671875 C 666.664062 214.179688 679.78125 214.742188 685.386719 205.476562 Z M 744.636719 88.609375 C 747.707031 83.03125 747.324219 75.710938 742.613281 70.808594 C 730.007812 57.703125 705.417969 57.109375 693.511719 71.519531 C 688.726562 77.636719 690.710938 86.34375 696.03125 91.371094 C 707.4375 102.089844 726.816406 103.152344 739.492188 94.109375 C 741.695312 92.710938 743.433594 90.789062 744.636719 88.609375 Z M 685.46875 132.925781 C 691.371094 121.929688 691.8125 107.761719 687.347656 96.175781 C 681.820312 83.273438 673.957031 70.910156 663.078125 61.867188 C 655.902344 54.136719 642.132812 55.464844 637.007812 64.824219 C 630.601562 75.957031 633.125 89.851562 627.640625 101.398438 C 623.953125 111.71875 614.390625 117.582031 606.523438 124.402344 C 599.46875 130.015625 595.226562 140.746094 601.070312 148.707031 C 607.496094 155.953125 618.359375 156.242188 627.394531 156.503906 C 642.863281 155.4375 659.203125 154.167969 672.851562 146.101562 C 678.402344 142.914062 682.589844 138.300781 685.46875 132.925781 Z M 685.46875 132.925781 " fill-opacity="1" fill-rule="nonzero"/></g></g></g><g clip-path="url(#3a50a0d2b9)"><g clip-path="url(#d4ceeb3a8c)"><g clip-path="url(#6062f51f1b)"><path fill="#727989" d="M 296.574219 718.882812 C 296.257812 718.75 295.929688 718.628906 295.597656 718.515625 C 281.859375 715.261719 269.046875 725.785156 262.929688 737.28125 C 256.820312 747.472656 255.648438 763.421875 266.496094 770.925781 C 268.082031 771.988281 269.9375 772.605469 271.816406 772.867188 C 288.179688 774.179688 301.828125 759.964844 305.753906 745.039062 C 309.027344 735.710938 306.402344 722.929688 296.574219 718.882812 Z M 242.082031 696.296875 C 234.042969 693.09375 224.398438 698.515625 219.902344 705.5625 C 210.824219 719.453125 209.6875 741.046875 223.3125 752.484375 C 224.644531 753.429688 226.144531 754.109375 227.726562 754.515625 C 239.058594 757.269531 248.609375 747.320312 252.253906 737.554688 C 257.332031 724.785156 257.007812 707.375 245.40625 698.21875 C 244.34375 697.386719 243.230469 696.753906 242.082031 696.296875 Z M 312.765625 776.945312 C 298.652344 771.894531 283.351562 781.59375 276.53125 793.84375 C 270.757812 802.3125 270.40625 816.789062 280.644531 822.035156 C 295.4375 828.136719 312.1875 816.699219 318.382812 803.351562 C 323.132812 794.800781 322.503906 781.6875 312.765625 776.945312 Z M 191.003906 728.550781 C 185.167969 726 177.914062 727.046875 173.457031 732.179688 C 161.550781 745.921875 163.191406 770.464844 178.625 781.015625 C 185.148438 785.226562 193.640625 782.460938 198.164062 776.703125 C 207.804688 764.371094 207.105469 744.976562 196.945312 733.175781 C 195.351562 731.105469 193.285156 729.550781 191 728.550781 Z M 240.507812 783.449219 C 229.019531 778.570312 214.875 779.417969 203.738281 784.914062 C 191.394531 791.59375 179.792969 800.542969 171.773438 812.199219 C 164.726562 820.046875 167.300781 833.640625 177.085938 837.894531 C 188.753906 843.265625 202.363281 839.488281 214.363281 843.902344 C 224.972656 846.636719 231.679688 855.628906 239.1875 862.84375 C 245.417969 869.359375 256.488281 872.609375 263.886719 866.066406 C 270.519531 859.011719 269.820312 848.167969 269.261719 839.144531 C 266.792969 823.835938 264.046875 807.679688 254.773438 794.820312 C 251.09375 789.582031 246.121094 785.832031 240.507812 783.449219 Z M 240.507812 783.449219 " fill-opacity="1" fill-rule="nonzero"/></g></g></g><g clip-path="url(#52829c4ca8)"><g clip-path="url(#74d984766f)"><g clip-path="url(#b788874638)"><path fill="#727989" d="M 2220.679688 501.726562 C 2220.769531 501.554688 2220.855469 501.378906 2220.933594 501.199219 C 2223.4375 493.730469 2218.238281 486.082031 2212.164062 482.101562 C 2206.8125 478.1875 2198.007812 476.730469 2193.289062 482.378906 C 2192.617188 483.203125 2192.183594 484.203125 2191.941406 485.234375 C 2190.382812 494.261719 2197.589844 502.5625 2205.683594 505.5 C 2210.699219 507.789062 2217.933594 506.980469 2220.679688 501.726562 Z M 2235.988281 472.59375 C 2238.175781 468.289062 2235.652344 462.65625 2231.964844 459.800781 C 2224.707031 454.054688 2212.769531 452.328125 2205.722656 459.320312 C 2205.128906 460.011719 2204.675781 460.8125 2204.371094 461.667969 C 2202.265625 467.824219 2207.3125 473.636719 2212.550781 476.15625 C 2219.390625 479.625 2229.078125 480.324219 2234.753906 474.34375 C 2235.269531 473.792969 2235.675781 473.207031 2235.988281 472.59375 Z M 2187.601562 507.78125 C 2191.125 500.195312 2186.507812 491.203125 2180.050781 486.792969 C 2175.636719 483.15625 2167.613281 482.226562 2164.179688 487.648438 C 2160.039062 495.558594 2165.546875 505.445312 2172.648438 509.5625 C 2177.15625 512.636719 2184.472656 512.949219 2187.601562 507.78125 Z M 2220.65625 442.582031 C 2222.371094 439.46875 2222.15625 435.386719 2219.527344 432.648438 C 2212.496094 425.339844 2198.777344 425.007812 2192.136719 433.046875 C 2189.464844 436.460938 2190.570312 441.316406 2193.542969 444.121094 C 2199.902344 450.101562 2210.714844 450.695312 2217.785156 445.648438 C 2219.015625 444.867188 2219.984375 443.796875 2220.65625 442.582031 Z M 2187.648438 467.304688 C 2190.941406 461.167969 2191.1875 453.265625 2188.699219 446.800781 C 2185.613281 439.605469 2181.226562 432.707031 2175.15625 427.664062 C 2171.152344 423.351562 2163.472656 424.089844 2160.613281 429.3125 C 2157.039062 435.523438 2158.445312 443.273438 2155.386719 449.71875 C 2153.332031 455.472656 2147.996094 458.742188 2143.605469 462.550781 C 2139.667969 465.683594 2137.304688 471.667969 2140.5625 476.109375 C 2144.148438 480.152344 2150.207031 480.3125 2155.25 480.457031 C 2163.878906 479.863281 2172.996094 479.15625 2180.609375 474.65625 C 2183.707031 472.875 2186.042969 470.300781 2187.648438 467.304688 Z M 2187.648438 467.304688 " fill-opacity="1" fill-rule="nonzero"/></g></g></g><g clip-path="url(#adcdba5385)"><g clip-path="url(#4b6a021b3e)"><g clip-path="url(#6378002bda)"><path fill="#727989" d="M 3815.898438 403.332031 C 3815.921875 402.992188 3815.933594 402.640625 3815.933594 402.289062 C 3814.683594 388.226562 3800.644531 379.398438 3787.808594 377.230469 C 3776.207031 374.652344 3760.703125 378.582031 3757.015625 391.246094 C 3756.507812 393.085938 3756.507812 395.042969 3756.855469 396.910156 C 3760.78125 412.847656 3778.582031 421.300781 3793.984375 420.308594 C 3803.867188 420.464844 3815.164062 413.933594 3815.898438 403.332031 Z M 3820.101562 344.496094 C 3820.597656 335.855469 3812.40625 328.421875 3804.296875 326.378906 C 3788.25 322.160156 3767.40625 327.90625 3760.859375 344.449219 C 3760.382812 346.007812 3760.214844 347.648438 3760.328125 349.273438 C 3761.296875 360.898438 3773.757812 366.8125 3784.175781 367.1875 C 3797.894531 367.96875 3814.308594 362.15625 3819.328125 348.253906 C 3819.78125 346.984375 3820.027344 345.730469 3820.101562 344.496094 Z M 3765.929688 437.046875 C 3766.261719 422.058594 3752.21875 410.609375 3738.445312 408.011719 C 3728.582031 405.214844 3714.738281 409.453125 3713 420.824219 C 3711.886719 436.785156 3728.03125 449.066406 3742.652344 450.722656 C 3752.265625 452.527344 3764.507812 447.78125 3765.929688 437.046875 Z M 3773.355469 306.230469 C 3773.929688 299.886719 3770.644531 293.335938 3764.363281 290.730469 C 3747.5625 283.78125 3724.796875 293.09375 3719.667969 311.070312 C 3717.734375 318.589844 3723.042969 325.773438 3729.933594 328.246094 C 3744.679688 333.492188 3762.859375 326.699219 3770.84375 313.328125 C 3772.304688 311.164062 3773.128906 308.710938 3773.351562 306.226562 Z M 3736.917969 370.550781 C 3737.914062 358.109375 3732.640625 344.953125 3723.90625 336.125 C 3713.667969 326.527344 3701.507812 318.351562 3687.914062 314.429688 C 3678.242188 310.222656 3666.160156 316.957031 3665.21875 327.589844 C 3663.8125 340.355469 3671.695312 352.074219 3671.300781 364.851562 C 3672.058594 375.78125 3665.648438 384.988281 3661.175781 394.390625 C 3656.964844 402.363281 3657.378906 413.894531 3665.925781 418.84375 C 3674.71875 422.90625 3684.785156 418.816406 3693.167969 415.433594 C 3706.910156 408.253906 3721.371094 400.539062 3730.640625 387.679688 C 3734.449219 382.53125 3736.433594 376.625 3736.917969 370.550781 Z M 3736.917969 370.550781 " fill-opacity="1" fill-rule="nonzero"/></g></g></g><g clip-path="url(#f0ac96c393)"><g clip-path="url(#483d5eee00)"><g clip-path="url(#9c9250ec29)"><path fill="#727989" d="M 1165.210938 880.042969 C 1165.386719 880.511719 1165.585938 880.984375 1165.796875 881.449219 C 1176.019531 899.300781 1199.976562 902.445312 1218.289062 897.496094 C 1235.214844 893.847656 1253.347656 879.203125 1250.519531 860.191406 C 1250.070312 857.445312 1248.878906 854.859375 1247.285156 852.597656 C 1232.378906 833.886719 1203.667969 833.535156 1183.882812 844.226562 C 1170.707031 850.039062 1159.726562 865.5625 1165.210938 880.042969 Z M 1195.472656 960.492188 C 1200.074219 972.230469 1215.445312 977.085938 1227.421875 974.851562 C 1251.234375 970.664062 1275.332031 950.371094 1273.921875 924.484375 C 1273.601562 922.128906 1272.828125 919.851562 1271.6875 917.769531 C 1263.328125 902.972656 1243.234375 902.726562 1229.214844 908.578125 C 1210.578125 915.898438 1192.382812 933.585938 1194.207031 955.042969 C 1194.382812 957.003906 1194.816406 958.816406 1195.472656 960.492188 Z M 1210.832031 804.984375 C 1219.519531 825.03125 1245.078125 831.636719 1264.898438 826.691406 C 1279.652344 824.390625 1295.398438 810.347656 1290.777344 794.234375 C 1282.535156 772.425781 1253.6875 766.003906 1233.320312 772.714844 C 1219.492188 776.175781 1206.179688 789.910156 1210.832031 804.984375 Z M 1280.652344 982.6875 C 1283.75 991.433594 1292.09375 998.105469 1301.992188 997.730469 C 1328.464844 996.699219 1352.933594 970.511719 1348.777344 943.589844 C 1346.753906 932.457031 1335.355469 926.179688 1324.730469 927.105469 C 1302.015625 929.136719 1282.085938 949.199219 1279.652344 971.761719 C 1279.039062 975.515625 1279.445312 979.265625 1280.65625 982.6875 Z M 1289.722656 875.351562 C 1295.980469 892.429688 1310.972656 906.632812 1327.910156 913 C 1347.308594 919.476562 1368.382812 922.894531 1388.765625 919.8125 C 1404.128906 919.488281 1416.023438 903.214844 1410.800781 888.570312 C 1404.890625 870.8125 1387.316406 860.097656 1380.058594 842.941406 C 1372.398438 828.933594 1375.28125 812.847656 1375.476562 797.675781 C 1376.199219 784.554688 1368.628906 769.546875 1354.300781 768.195312 C 1340.1875 768.171875 1329.351562 779.714844 1320.316406 789.296875 C 1306.492188 807.171875 1292.046875 826.183594 1287.605469 848.855469 C 1285.699219 857.988281 1286.667969 867.011719 1289.722656 875.351562 Z M 1289.722656 875.351562 " fill-opacity="1" fill-rule="nonzero"/></g></g></g><g clip-path="url(#8a3df58f66)"><g clip-path="url(#9cc9891867)"><g clip-path="url(#f7e60629a2)"><path fill="#727989" d="M 1962.992188 908.191406 C 1962.800781 907.910156 1962.597656 907.621094 1962.382812 907.34375 C 1952.789062 896.988281 1936.285156 898.589844 1924.800781 904.730469 C 1914.046875 909.785156 1904.1875 922.378906 1909.019531 934.65625 C 1909.742188 936.421875 1910.941406 937.964844 1912.355469 939.230469 C 1925.214844 949.4375 1944.464844 945.234375 1956.042969 935.027344 C 1963.957031 929.105469 1968.894531 917.027344 1962.992188 908.191406 Z M 1930.320312 859.078125 C 1925.429688 851.941406 1914.402344 851.070312 1906.738281 854.414062 C 1891.460938 860.898438 1878.488281 878.191406 1883.429688 895.28125 C 1884.007812 896.808594 1884.878906 898.210938 1885.964844 899.425781 C 1893.84375 908.027344 1907.316406 905.085938 1915.785156 899.007812 C 1927.113281 891.230469 1936.546875 876.59375 1932.011719 862.527344 C 1931.589844 861.246094 1931.019531 860.097656 1930.320312 859.078125 Z M 1944.089844 965.433594 C 1935.183594 953.371094 1917.070312 952.90625 1904.582031 959.277344 C 1895.074219 963.097656 1886.714844 974.921875 1892.296875 984.980469 C 1901.179688 998.289062 1921.460938 998.125 1934.042969 990.488281 C 1942.75 986.035156 1949.53125 974.792969 1944.089844 965.433594 Z M 1869.933594 857.40625 C 1866.511719 852.039062 1859.902344 848.863281 1853.339844 850.648438 C 1835.800781 855.425781 1823.488281 876.722656 1830.425781 894.078125 C 1833.5 901.210938 1842.089844 903.644531 1849.054688 901.382812 C 1863.929688 896.515625 1874.152344 880.019531 1872.292969 864.558594 C 1872.121094 861.953125 1871.273438 859.507812 1869.933594 857.40625 Z M 1880.460938 930.578125 C 1873.636719 920.125 1861.417969 912.945312 1849.109375 911.308594 C 1835.136719 909.976562 1820.515625 910.949219 1807.363281 916.160156 C 1797.140625 918.75 1791.703125 931.46875 1797.460938 940.457031 C 1804.15625 951.417969 1817.5625 955.863281 1825.070312 966.210938 C 1832.355469 974.394531 1832.917969 985.597656 1835.128906 995.773438 C 1836.675781 1004.65625 1844.058594 1013.523438 1853.847656 1012.210938 C 1863.285156 1010.046875 1868.746094 1000.652344 1873.308594 992.847656 C 1879.789062 978.757812 1886.507812 963.8125 1885.972656 947.96875 C 1885.835938 941.566406 1883.792969 935.679688 1880.460938 930.578125 Z M 1880.460938 930.578125 " fill-opacity="1" fill-rule="nonzero"/></g></g></g><g clip-path="url(#b4e7f59b34)"><g clip-path="url(#e6e1bd6628)"><g clip-path="url(#1a304980be)"><path fill="#727989" d="M 365.417969 544.269531 C 365.328125 544.4375 365.242188 544.617188 365.164062 544.792969 C 362.660156 552.261719 367.855469 559.914062 373.933594 563.890625 C 379.285156 567.804688 388.089844 569.261719 392.808594 563.613281 C 393.476562 562.789062 393.914062 561.789062 394.15625 560.757812 C 395.714844 551.734375 388.507812 543.433594 380.414062 540.492188 C 375.398438 538.203125 368.164062 539.015625 365.414062 544.269531 Z M 350.109375 573.398438 C 347.921875 577.703125 350.445312 583.335938 354.132812 586.191406 C 361.390625 591.9375 373.328125 593.664062 380.375 586.671875 C 380.964844 585.984375 381.421875 585.183594 381.726562 584.324219 C 383.828125 578.167969 378.785156 572.359375 373.546875 569.835938 C 366.707031 566.371094 357.019531 565.667969 351.34375 571.652344 C 350.828125 572.199219 350.421875 572.785156 350.109375 573.398438 Z M 398.496094 538.214844 C 394.972656 545.800781 399.589844 554.792969 406.046875 559.203125 C 410.460938 562.835938 418.484375 563.765625 421.917969 558.34375 C 426.058594 550.433594 420.550781 540.550781 413.449219 536.429688 C 408.941406 533.359375 401.625 533.046875 398.496094 538.214844 Z M 365.441406 603.410156 C 363.726562 606.523438 363.941406 610.609375 366.570312 613.34375 C 373.601562 620.652344 387.320312 620.984375 393.960938 612.945312 C 396.632812 609.535156 395.527344 604.675781 392.554688 601.871094 C 386.195312 595.890625 375.382812 595.296875 368.3125 600.34375 C 367.082031 601.125 366.113281 602.195312 365.441406 603.414062 Z M 398.449219 578.6875 C 395.15625 584.824219 394.910156 592.726562 397.398438 599.191406 C 400.484375 606.386719 404.871094 613.285156 410.941406 618.332031 C 414.941406 622.644531 422.625 621.902344 425.484375 616.679688 C 429.058594 610.472656 427.652344 602.71875 430.710938 596.277344 C 432.765625 590.519531 438.101562 587.25 442.492188 583.445312 C 446.425781 580.3125 448.792969 574.328125 445.53125 569.886719 C 441.949219 565.84375 435.890625 565.679688 430.847656 565.535156 C 422.21875 566.128906 413.101562 566.839844 405.488281 571.339844 C 402.390625 573.117188 400.054688 575.691406 398.449219 578.6875 Z M 398.449219 578.6875 " fill-opacity="1" fill-rule="nonzero"/></g></g></g><g clip-path="url(#5854c03e98)"><g clip-path="url(#dc0a74d24d)"><g clip-path="url(#72119e0308)"><path fill="#727989" d="M 577.703125 728.578125 C 577.828125 728.753906 577.960938 728.933594 578.101562 729.105469 C 584.359375 735.53125 594.8125 734.253906 602.003906 730.171875 C 608.753906 726.792969 614.816406 718.640625 611.554688 710.921875 C 611.066406 709.8125 610.28125 708.847656 609.363281 708.066406 C 601.035156 701.789062 588.878906 704.765625 581.691406 711.429688 C 576.757812 715.3125 573.8125 723.058594 577.703125 728.578125 Z M 599.222656 759.246094 C 602.441406 763.699219 609.457031 764.078125 614.269531 761.832031 C 623.867188 757.476562 631.832031 746.289062 628.421875 735.515625 C 628.03125 734.558594 627.457031 733.679688 626.75 732.925781 C 621.613281 727.589844 613.101562 729.667969 607.820312 733.664062 C 600.75 738.78125 594.992188 748.222656 598.097656 757.082031 C 598.382812 757.890625 598.761719 758.609375 599.222656 759.246094 Z M 588.800781 691.933594 C 594.644531 699.449219 606.152344 699.460938 613.980469 695.21875 C 619.960938 692.640625 625.078125 685.003906 621.375 678.703125 C 615.527344 670.394531 602.648438 670.820312 594.78125 675.867188 C 589.320312 678.832031 585.195312 686.074219 588.800781 691.933594 Z M 637.59375 759.351562 C 639.851562 762.707031 644.097656 764.617188 648.234375 763.382812 C 659.296875 760.070312 666.777344 746.355469 662.097656 735.441406 C 660.035156 730.964844 654.539062 729.550781 650.152344 731.097656 C 640.785156 734.425781 634.554688 745.0625 635.980469 754.847656 C 636.128906 756.5 636.710938 758.039062 637.59375 759.351562 Z M 629.75 713.058594 C 634.25 719.585938 642.121094 723.953125 649.964844 724.796875 C 658.855469 725.421875 668.121094 724.574219 676.394531 721.058594 C 682.84375 719.25 686.09375 711.089844 682.296875 705.472656 C 677.871094 698.621094 669.289062 696.007812 664.359375 689.558594 C 659.601562 684.476562 659.070312 677.371094 657.503906 670.945312 C 656.382812 665.332031 651.554688 659.816406 645.359375 660.804688 C 639.398438 662.328125 636.078125 668.378906 633.308594 673.410156 C 629.414062 682.457031 625.386719 692.050781 625.976562 702.105469 C 626.164062 706.167969 627.554688 709.871094 629.75 713.058594 Z M 629.75 713.058594 " fill-opacity="1" fill-rule="nonzero"/></g></g></g><g clip-path="url(#5ac349e269)"><g clip-path="url(#a32779bd29)"><g clip-path="url(#446ca9087e)"><path fill="#727989" d="M 3769.363281 635.386719 C 3769.046875 635.597656 3768.734375 635.824219 3768.425781 636.058594 C 3757.027344 646.65625 3758.820312 664.847656 3765.609375 677.496094 C 3771.203125 689.339844 3785.105469 700.1875 3798.628906 694.839844 C 3800.578125 694.042969 3802.277344 692.71875 3803.667969 691.15625 C 3814.898438 676.960938 3810.230469 655.746094 3798.957031 643 C 3792.414062 634.285156 3779.09375 628.859375 3769.363281 635.386719 Z M 3715.273438 671.488281 C 3707.410156 676.894531 3706.472656 689.054688 3710.171875 697.496094 C 3717.34375 714.328125 3736.433594 728.597656 3755.269531 723.121094 C 3756.949219 722.480469 3758.492188 721.519531 3759.832031 720.320312 C 3769.300781 711.621094 3766.035156 696.773438 3759.316406 687.445312 C 3750.726562 674.96875 3734.570312 664.597656 3719.070312 669.621094 C 3717.65625 670.085938 3716.394531 670.71875 3715.273438 671.492188 Z M 3832.5 656.125 C 3819.21875 665.964844 3818.734375 685.933594 3825.78125 699.6875 C 3830.007812 710.167969 3843.058594 719.359375 3854.140625 713.191406 C 3868.796875 703.375 3868.578125 681.015625 3860.140625 667.15625 C 3855.214844 657.5625 3842.808594 650.109375 3832.5 656.125 Z M 3713.535156 738.066406 C 3707.621094 741.851562 3704.136719 749.144531 3706.113281 756.371094 C 3711.410156 775.703125 3734.910156 789.238281 3754.035156 781.558594 C 3761.890625 778.15625 3764.5625 768.679688 3762.054688 761.007812 C 3756.660156 744.621094 3738.457031 733.375 3721.414062 735.453125 C 3718.542969 735.644531 3715.847656 736.589844 3713.535156 738.070312 Z M 3794.183594 726.332031 C 3782.671875 733.875 3774.78125 747.359375 3772.996094 760.933594 C 3771.550781 776.335938 3772.648438 792.453125 3778.417969 806.945312 C 3781.292969 818.210938 3795.324219 824.183594 3805.222656 817.820312 C 3817.292969 810.417969 3822.171875 795.632812 3833.566406 787.339844 C 3842.574219 779.292969 3854.925781 778.652344 3866.136719 776.195312 C 3875.929688 774.476562 3885.691406 766.320312 3884.226562 755.53125 C 3881.824219 745.128906 3871.457031 739.125 3862.84375 734.109375 C 3847.304688 726.988281 3830.8125 719.609375 3813.347656 720.226562 C 3806.289062 720.386719 3799.804688 722.652344 3794.183594 726.332031 Z M 3794.183594 726.332031 " fill-opacity="1" fill-rule="nonzero"/></g></g></g><g clip-path="url(#d735c059dc)"><g clip-path="url(#298c72580a)"><g clip-path="url(#4f9edd9e36)"><path fill="#727989" d="M 1466.15625 444.738281 C 1466.367188 444.953125 1466.59375 445.167969 1466.824219 445.375 C 1476.859375 452.820312 1490.953125 448.734375 1499.9375 441.523438 C 1508.464844 435.371094 1514.988281 422.808594 1508.78125 412.921875 C 1507.867188 411.503906 1506.574219 410.355469 1505.136719 409.484375 C 1492.289062 402.703125 1476.230469 409.5 1467.824219 420.265625 C 1461.90625 426.707031 1459.578125 438.015625 1466.15625 444.738281 Z M 1502.578125 482.128906 C 1508 487.539062 1517.734375 486.496094 1523.851562 482.335938 C 1536.082031 474.210938 1544.542969 457.050781 1537.460938 442.992188 C 1536.707031 441.761719 1535.722656 440.683594 1534.582031 439.804688 C 1526.328125 433.605469 1515.089844 438.359375 1508.710938 445.027344 C 1500.125 453.640625 1494.3125 467.910156 1500.546875 479.40625 C 1501.125 480.449219 1501.804688 481.355469 1502.582031 482.125 Z M 1473.265625 391.871094 C 1482.976562 400.90625 1498.804688 398.359375 1508.628906 390.78125 C 1516.277344 385.910156 1521.617188 374.261719 1515.125 366.425781 C 1505.226562 356.296875 1487.613281 359.75 1477.914062 368.441406 C 1471.066406 373.734375 1467.003906 384.617188 1473.265625 391.871094 Z M 1555.375 473.734375 C 1559.226562 477.847656 1565.492188 479.527344 1570.910156 476.910156 C 1585.386719 469.890625 1592.621094 449.363281 1583.753906 435.398438 C 1579.921875 429.695312 1572.050781 428.976562 1566.363281 432.082031 C 1554.222656 438.742188 1548.019531 454.753906 1552.15625 467.898438 C 1552.730469 470.140625 1553.867188 472.125 1555.375 473.734375 Z M 1534.289062 411.8125 C 1541.925781 419.789062 1553.726562 424.039062 1564.699219 423.457031 C 1577.066406 422.339844 1589.625 419.109375 1600.214844 412.429688 C 1608.683594 408.511719 1611.339844 396.5625 1604.867188 389.683594 C 1597.253906 381.246094 1584.871094 379.5625 1576.65625 371.785156 C 1568.984375 365.855469 1566.667969 356.203125 1563.082031 347.714844 C 1560.292969 340.242188 1552.425781 333.734375 1544.125 336.472656 C 1536.265625 339.894531 1533.050781 348.953125 1530.355469 356.484375 C 1527.015625 369.796875 1523.609375 383.890625 1526.65625 397.585938 C 1527.820312 403.128906 1530.558594 407.914062 1534.289062 411.8125 Z M 1534.289062 411.8125 " fill-opacity="1" fill-rule="nonzero"/></g></g></g><g clip-path="url(#803e1ef5f2)"><g clip-path="url(#6bad7c25e7)"><g clip-path="url(#30977417fe)"><path fill="#727989" d="M 1954.78125 297.640625 C 1954.617188 297.542969 1954.445312 297.445312 1954.269531 297.355469 C 1946.917969 294.363281 1938.894531 299.109375 1934.511719 304.972656 C 1930.242188 310.105469 1928.21875 318.867188 1933.601562 323.964844 C 1934.390625 324.691406 1935.367188 325.195312 1936.390625 325.5 C 1945.367188 327.636719 1954.167969 320.914062 1957.632812 312.960938 C 1960.25 308.058594 1959.890625 300.734375 1954.78125 297.640625 Z M 1926.453125 280.414062 C 1922.261719 277.941406 1916.441406 280.125 1913.335938 283.652344 C 1907.101562 290.589844 1904.613281 302.488281 1911.199219 310.011719 C 1911.855469 310.652344 1912.632812 311.15625 1913.472656 311.519531 C 1919.535156 314.023438 1925.691406 309.316406 1928.558594 304.203125 C 1932.476562 297.546875 1933.792969 287.847656 1928.132812 281.765625 C 1927.613281 281.214844 1927.050781 280.765625 1926.453125 280.414062 Z M 1958.785156 331.285156 C 1951.378906 327.265625 1942.046875 331.339844 1937.207031 337.558594 C 1933.273438 341.769531 1931.832031 349.777344 1937.070312 353.570312 C 1944.761719 358.230469 1955.046875 353.320312 1959.636719 346.4375 C 1963.011719 342.09375 1963.785156 334.757812 1958.785156 331.285156 Z M 1895.308594 293.9375 C 1892.285156 292.019531 1888.164062 291.980469 1885.25 294.449219 C 1877.457031 301.058594 1876.257812 314.832031 1883.925781 322.019531 C 1887.1875 324.917969 1892.140625 324.113281 1895.148438 321.304688 C 1901.5625 315.28125 1902.839844 304.449219 1898.210938 297.019531 C 1897.503906 295.734375 1896.488281 294.691406 1895.304688 293.941406 Z M 1918.089844 328.6875 C 1912.125 324.992188 1904.195312 324.246094 1897.539062 326.34375 C 1890.105469 328.992188 1882.894531 332.96875 1877.4375 338.753906 C 1872.847656 342.507812 1873.109375 350.277344 1878.179688 353.484375 C 1884.199219 357.46875 1892.085938 356.542969 1898.371094 360.023438 C 1904.027344 362.453125 1906.980469 368.023438 1910.53125 372.679688 C 1913.433594 376.832031 1919.304688 379.589844 1923.976562 376.589844 C 1928.265625 373.242188 1928.8125 367.15625 1929.273438 362.097656 C 1929.21875 353.382812 1929.082031 344.171875 1925.035156 336.230469 C 1923.441406 333.003906 1921 330.496094 1918.089844 328.6875 Z M 1918.089844 328.6875 " fill-opacity="1" fill-rule="nonzero"/></g></g></g><g clip-path="url(#5b8e3798a5)"><g clip-path="url(#1b3eda5a8e)"><g clip-path="url(#6ec901a44b)"><path fill="#727989" d="M 2479.550781 290.304688 C 2479.769531 289.960938 2479.980469 289.605469 2480.179688 289.238281 C 2486.828125 273.917969 2477.238281 256.804688 2465.121094 247.292969 C 2454.527344 238.054688 2436.195312 233.371094 2425.199219 244.445312 C 2423.628906 246.070312 2422.527344 248.101562 2421.828125 250.238281 C 2416.894531 269.023438 2430.613281 287.871094 2447.179688 295.550781 C 2457.359375 301.304688 2472.792969 300.90625 2479.550781 290.304688 Z M 2517.191406 231.539062 C 2522.59375 222.84375 2518.285156 210.484375 2511.015625 203.777344 C 2496.726562 190.320312 2471.816406 184.5 2455.660156 197.988281 C 2454.28125 199.34375 2453.179688 200.949219 2452.378906 202.707031 C 2446.8125 215.332031 2456.410156 228.523438 2467.027344 234.804688 C 2480.84375 243.375 2501.1875 246.617188 2514.261719 235.011719 C 2515.449219 233.945312 2516.417969 232.78125 2517.191406 231.539062 Z M 2408.558594 297.078125 C 2417.382812 281.691406 2409.265625 261.855469 2396.417969 251.363281 C 2387.753906 242.878906 2370.972656 239.457031 2362.734375 250.289062 C 2352.546875 266.246094 2362.382812 288.132812 2376.640625 298.125 C 2385.609375 305.4375 2401.011719 307.429688 2408.558594 297.078125 Z M 2490.257812 165.339844 C 2494.441406 159.078125 2494.734375 150.410156 2489.679688 144.152344 C 2476.152344 127.429688 2447.226562 124.230469 2431.730469 140.011719 C 2425.472656 146.734375 2426.921875 157.199219 2432.6875 163.664062 C 2445.042969 177.453125 2467.773438 180.675781 2483.632812 171.300781 C 2486.375 169.875 2488.617188 167.789062 2490.253906 165.339844 Z M 2416.019531 211.574219 C 2424.089844 199.207031 2426.050781 182.558594 2421.964844 168.445312 C 2416.757812 152.679688 2408.742188 137.308594 2396.835938 125.542969 C 2389.164062 115.703125 2372.800781 115.871094 2365.808594 126.382812 C 2357.128906 138.851562 2358.691406 155.488281 2351.058594 168.542969 C 2345.664062 180.332031 2333.796875 186.269531 2323.832031 193.511719 C 2314.945312 199.414062 2308.855469 211.632812 2314.9375 221.609375 C 2321.777344 230.804688 2334.550781 232.246094 2345.175781 233.46875 C 2363.515625 233.78125 2382.902344 233.945312 2399.808594 225.824219 C 2406.675781 222.625 2412.078125 217.613281 2416.019531 211.574219 Z M 2416.019531 211.574219 " fill-opacity="1" fill-rule="nonzero"/></g></g></g><g clip-path="url(#808bc36b3b)"><g clip-path="url(#32634e7cac)"><g clip-path="url(#c874910e55)"><path fill="#727989" d="M 2754.570312 12.6875 C 2754.292969 12.875 2754.011719 13.074219 2753.742188 13.285156 C 2743.652344 22.660156 2745.242188 38.757812 2751.25 49.949219 C 2756.199219 60.433594 2768.5 70.03125 2780.46875 65.300781 C 2782.191406 64.589844 2783.695312 63.421875 2784.929688 62.039062 C 2794.867188 49.480469 2790.734375 30.703125 2780.757812 19.425781 C 2774.96875 11.714844 2763.179688 6.914062 2754.570312 12.6875 Z M 2706.707031 44.636719 C 2699.75 49.417969 2698.917969 60.179688 2702.195312 67.648438 C 2708.539062 82.542969 2725.433594 95.171875 2742.097656 90.324219 C 2743.585938 89.757812 2744.953125 88.90625 2746.136719 87.84375 C 2754.515625 80.148438 2751.625 67.007812 2745.683594 58.753906 C 2738.078125 47.714844 2723.785156 38.535156 2710.066406 42.984375 C 2708.816406 43.394531 2707.703125 43.953125 2706.707031 44.636719 Z M 2810.4375 31.039062 C 2798.6875 39.746094 2798.261719 57.417969 2804.496094 69.589844 C 2808.234375 78.863281 2819.785156 86.996094 2829.585938 81.539062 C 2842.558594 72.851562 2842.363281 53.0625 2834.898438 40.800781 C 2830.539062 32.3125 2819.5625 25.714844 2810.4375 31.039062 Z M 2705.167969 103.550781 C 2699.9375 106.898438 2696.851562 113.351562 2698.601562 119.746094 C 2703.289062 136.851562 2724.082031 148.832031 2741.007812 142.03125 C 2747.957031 139.023438 2750.320312 130.640625 2748.105469 123.851562 C 2743.332031 109.347656 2727.222656 99.398438 2712.140625 101.238281 C 2709.601562 101.40625 2707.21875 102.242188 2705.167969 103.550781 Z M 2776.535156 93.167969 C 2766.347656 99.839844 2759.363281 111.769531 2757.785156 123.78125 C 2756.507812 137.414062 2757.480469 151.675781 2762.582031 164.5 C 2765.125 174.46875 2777.542969 179.75 2786.300781 174.121094 C 2796.980469 167.570312 2801.300781 154.488281 2811.382812 147.148438 C 2819.355469 140.027344 2830.28125 139.464844 2840.203125 137.289062 C 2848.871094 135.765625 2857.507812 128.550781 2856.210938 119.003906 C 2854.085938 109.796875 2844.914062 104.484375 2837.292969 100.046875 C 2823.539062 93.746094 2808.949219 87.214844 2793.492188 87.761719 C 2787.246094 87.90625 2781.507812 89.90625 2776.535156 93.167969 Z M 2776.535156 93.167969 " fill-opacity="1" fill-rule="nonzero"/></g></g></g><g clip-path="url(#b55263dfa4)"><g clip-path="url(#c2e814e3a1)"><g clip-path="url(#8f5db5b09b)"><path fill="#727989" d="M 746.125 936.824219 C 746.316406 937.109375 746.519531 937.394531 746.734375 937.675781 C 756.328125 948.03125 772.832031 946.429688 784.316406 940.289062 C 795.066406 935.234375 804.925781 922.640625 800.097656 910.363281 C 799.375 908.597656 798.175781 907.050781 796.761719 905.785156 C 783.902344 895.578125 764.652344 899.785156 753.074219 909.992188 C 745.160156 915.914062 740.21875 927.988281 746.125 936.824219 Z M 778.792969 985.941406 C 783.6875 993.078125 794.714844 993.949219 802.378906 990.601562 C 817.652344 984.121094 830.628906 966.828125 825.683594 949.738281 C 825.105469 948.210938 824.238281 946.808594 823.152344 945.59375 C 815.273438 936.992188 801.800781 939.933594 793.332031 946.011719 C 782 953.785156 772.570312 968.425781 777.105469 982.492188 C 777.527344 983.773438 778.097656 984.917969 778.796875 985.941406 Z M 765.027344 879.585938 C 773.933594 891.644531 792.042969 892.113281 804.53125 885.742188 C 814.042969 881.921875 822.402344 870.097656 816.820312 860.039062 C 807.9375 846.730469 787.65625 846.894531 775.074219 854.53125 C 766.363281 858.984375 759.585938 870.222656 765.027344 879.585938 Z M 839.183594 987.613281 C 842.605469 992.980469 849.214844 996.152344 855.777344 994.371094 C 873.316406 989.59375 885.628906 968.296875 878.6875 950.9375 C 875.617188 943.808594 867.023438 941.371094 860.0625 943.636719 C 845.1875 948.503906 834.964844 965 836.824219 980.460938 C 836.992188 983.066406 837.84375 985.511719 839.183594 987.613281 Z M 828.65625 914.441406 C 835.480469 924.894531 847.699219 932.070312 860.007812 933.710938 C 873.980469 935.042969 888.597656 934.070312 901.753906 928.859375 C 911.976562 926.269531 917.414062 913.546875 911.65625 904.5625 C 904.957031 893.601562 891.554688 889.15625 884.046875 878.804688 C 876.761719 870.625 876.199219 859.421875 873.984375 849.246094 C 872.441406 840.363281 865.058594 831.496094 855.269531 832.808594 C 845.828125 834.972656 840.367188 844.367188 835.808594 852.171875 C 829.328125 866.257812 822.609375 881.207031 823.144531 897.050781 C 823.28125 903.453125 825.324219 909.335938 828.65625 914.441406 Z M 828.65625 914.441406 " fill-opacity="1" fill-rule="nonzero"/></g></g></g></svg>